<svg xmlns="http://www.w3.org/2000/svg" width="168" height="66" viewBox="0 0 168 66" fill="none"><path d="M82.9047 0C80.3456 0 78.6446 0.87033 76.2446 2.29034L64.7616 8.98323V19.7784L78.6472 11.2099V31.2301L29.7296 2.43794C27.1958 0.928861 25.4695 0 22.8222 0C19.0239 0 16.1469 2.66952 16.1469 6.96264L16.1191 35.4901C16.1191 39.7832 18.9962 42.4527 22.7944 42.4527C25.4418 42.4527 27.168 41.5239 29.6993 40.0148L40.9628 33.5917L40.9703 22.7736L26.9384 31.2403L26.9661 11.2049L75.3083 39.8977C77.726 41.2898 79.9116 42.4502 82.6751 42.4502C86.5894 42.4502 89.58 39.7807 89.58 35.4876V6.96264C89.58 2.66952 86.7029 0 82.9047 0Z" fill="#EB5C2E"></path><path d="M11.1171 0H0V42.4553H11.1171V0Z" fill="#EB5C2E"></path><path d="M168 11.2099V0H102.365C97.9891 0 94.5593 3.57802 94.5593 8.11035V42.4578H105.676V26.8352H168V15.6252H105.676V11.2125H168V11.2099Z" fill="#EB5C2E"></path><path d="M5.62793 63.626C0.582983 63.626 0 61.4349 0 60.1574V60.0149H3.14457C3.18243 60.6027 3.52061 61.5545 6.00397 61.5545H6.18568C8.72203 61.5545 9.00721 61.0455 9.00721 60.5239C9.00721 59.964 8.70941 59.6103 6.48348 59.5466L4.82791 59.5085C1.23158 59.4041 0.131234 58.1775 0.131234 56.6659V56.5488C0.131234 55.1008 0.984257 53.5867 5.37051 53.5867H6.26391C10.8167 53.5867 11.854 55.1925 11.854 56.6532V56.783H8.72203C8.65641 56.4165 8.46208 55.6225 5.94087 55.6225H5.73393C3.40452 55.6225 3.23795 56.0399 3.23795 56.4572C3.23795 56.8746 3.4979 57.2538 5.46389 57.2919L7.0816 57.3174C10.7032 57.3835 12.1669 58.2691 12.1669 60.2007V60.3839C12.1669 61.9897 11.3644 63.6311 6.52638 63.6311H5.63298L5.62793 63.626Z" fill="#EB5C2E"></path><path d="M13.3102 53.7495H16.1948V57.61C16.5052 57.297 17.5526 56.279 19.622 56.279H19.7129C22.1205 56.279 23.1023 57.6609 23.1023 59.0173V63.4529H20.1924V59.9817C20.1924 58.9002 19.6094 58.2335 18.3299 58.2335C17.0504 58.2335 16.1948 58.9893 16.1948 60.137V63.4503H13.3102V53.7444V53.7495Z" fill="#EB5C2E"></path><path d="M27.438 55.7598H24.5534V53.752H27.438V55.7598ZM27.438 63.4554H24.5534V56.4367H27.438V63.4554Z" fill="#EB5C2E"></path><path d="M31.7965 56.4368V57.442C32.1069 57.1671 33.2199 56.2688 35.3298 56.2688H35.5619C38.7191 56.2688 39.7665 57.8593 39.7665 59.7908V60.0377C39.7665 61.8776 38.6788 63.6259 35.4711 63.6259H35.2641C33.1947 63.6259 32.0287 62.725 31.7965 62.4654V65.9086H28.9119V56.4368H31.7965ZM31.7965 59.9461C31.7965 60.8189 32.6117 61.7733 34.3707 61.7733H34.4364C36.2989 61.7733 36.8162 60.796 36.8162 59.9461V59.8952C36.8162 58.9943 36.2989 58.0807 34.4364 58.0807H34.3707C32.5713 58.0807 31.7965 58.9943 31.7965 59.8952V59.9461Z" fill="#EB5C2E"></path><path d="M43.802 56.4368V57.442C44.1124 57.1671 45.2253 56.2688 47.3352 56.2688H47.5674C50.7246 56.2688 51.7719 57.8593 51.7719 59.7908V60.0377C51.7719 61.8776 50.6842 63.6259 47.4765 63.6259H47.2696C45.2001 63.6259 44.0341 62.725 43.802 62.4654V65.9086H40.9173V56.4368H43.802ZM43.802 59.9461C43.802 60.8189 44.6171 61.7733 46.3762 61.7733H46.4418C48.3043 61.7733 48.8217 60.796 48.8217 59.9461V59.8952C48.8217 58.9943 48.3043 58.0807 46.4418 58.0807H46.3762C44.5767 58.0807 43.802 58.9943 43.802 59.8952V59.9461Z" fill="#EB5C2E"></path><path d="M55.8074 55.7598H52.9227V53.752H55.8074V55.7598ZM55.8074 63.4554H52.9227V56.4367H55.8074V63.4554Z" fill="#EB5C2E"></path><path d="M57.2812 56.4367H60.1406V57.6379C60.4889 57.2867 61.5261 56.2815 63.5956 56.2815H63.6865C66.1193 56.2815 67.0758 57.6633 67.0758 59.0197V63.4554H64.166V59.9842C64.166 58.9027 63.583 58.2359 62.3035 58.2359C61.0239 58.2359 60.1684 58.9917 60.1684 60.1394V63.4528H57.2837V56.4342L57.2812 56.4367Z" fill="#EB5C2E"></path><path d="M73.3599 66.0001C68.9863 66.0001 68.6254 64.0558 68.6254 63.496V63.4578H71.5353C71.5731 63.6283 71.7801 64.1093 73.7612 64.1093H73.7991C75.9468 64.1093 76.2824 62.987 76.2824 62.0861C75.9342 62.3991 75.0786 63.1422 72.8931 63.1422H72.7391C69.4784 63.1422 68.1989 61.6026 68.1989 59.7907V59.5286C68.1989 57.8337 69.2866 56.2661 72.3782 56.2661H72.6508C74.9676 56.2661 75.8988 57.0219 76.2723 57.3757V56.4366H79.1696V62.1777C79.1696 63.4425 78.5488 66.0001 74.2786 66.0001H73.3599ZM73.5164 58.0958C71.6539 58.0958 71.1365 58.8796 71.1365 59.6609V59.7271C71.1365 60.5236 71.7448 61.3583 73.5164 61.3583H73.5947C75.4193 61.3583 76.2219 60.549 76.2219 59.7398V59.6889C76.2219 58.8542 75.4067 58.0984 73.5947 58.0984H73.5164V58.0958Z" fill="#EB5C2E"></path><path d="M90.1503 63.6259C85.1054 63.6259 84.5224 61.4348 84.5224 60.1547V60.0122H87.667C87.7048 60.6001 88.043 61.5518 90.5264 61.5518H90.7081C93.2444 61.5518 93.5296 61.0429 93.5296 60.5212C93.5296 59.9613 93.2318 59.6076 91.0059 59.544L89.3503 59.5058C85.754 59.4015 84.6536 58.1748 84.6536 56.6632V56.5462C84.6536 55.0982 85.5067 53.584 89.8929 53.584H90.7863C95.3391 53.584 96.3764 55.1898 96.3764 56.6505V56.7803H93.2444C93.1788 56.4138 92.9845 55.6198 90.4633 55.6198H90.2563C87.9269 55.6198 87.7603 56.0372 87.7603 56.4545C87.7603 56.8719 88.0178 57.2511 89.9863 57.2892L91.604 57.3147C95.2256 57.3809 96.6893 58.2665 96.6893 60.198V60.3812C96.6893 61.987 95.8868 63.6284 91.0488 63.6284H90.1554L90.1503 63.6259Z" fill="#EB5C2E"></path><path d="M102.582 63.6514C98.5468 63.6514 97.5752 61.6435 97.5752 60.025V59.7909C97.5752 58.1724 98.5317 56.2434 102.57 56.2434H103.488C107.731 56.2434 108.47 58.2004 108.47 59.7909V60.025C108.47 61.6435 107.784 63.6514 103.488 63.6514H102.582ZM105.545 59.9461V59.88C105.545 59.0071 104.99 58.1062 103.049 58.1062H103.037C101.071 58.1062 100.528 58.9944 100.528 59.88V59.9461C100.528 60.7681 101.071 61.7606 103.037 61.7606C105.003 61.7606 105.548 60.7681 105.548 59.9461H105.545Z" fill="#EB5C2E"></path><path d="M112.506 63.4555H109.621V53.7495H112.506V63.4555Z" fill="#EB5C2E"></path><path d="M123.605 63.4554H120.746V62.2415C120.397 62.5672 119.388 63.6106 117.369 63.6106H117.265C114.873 63.6106 113.954 62.1244 113.954 60.8062V56.4368H116.864V59.9079C116.864 60.9513 117.419 61.6562 118.648 61.6562C119.877 61.6562 120.718 60.9004 120.718 59.7527V56.4393H123.602V63.4579L123.605 63.4554Z" fill="#EB5C2E"></path><path d="M127.731 63.4554C126.477 63.4554 126.01 62.6716 126.01 61.4602V58.3683H124.652V56.4368H126.01V54.3882H128.857V56.4368H130.227V58.3683H128.857V60.9131C128.857 61.2923 128.935 61.5264 129.44 61.5264H130.23V63.4579H127.734L127.731 63.4554Z" fill="#EB5C2E"></path><path d="M134.354 55.7598H131.469V53.752H134.354V55.7598ZM134.354 63.4554H131.469V56.4367H134.354V63.4554Z" fill="#EB5C2E"></path><path d="M140.511 63.6514C136.476 63.6514 135.504 61.6435 135.504 60.025V59.7909C135.504 58.1724 136.461 56.2434 140.499 56.2434H141.418C145.66 56.2434 146.399 58.2004 146.399 59.7909V60.025C146.399 61.6435 145.713 63.6514 141.418 63.6514H140.511ZM143.474 59.9461V59.88C143.474 59.0071 142.919 58.1062 140.978 58.1062H140.966C139 58.1062 138.457 58.9944 138.457 59.88V59.9461C138.457 60.7681 139 61.7606 140.966 61.7606C142.932 61.7606 143.477 60.7681 143.477 59.9461H143.474Z" fill="#EB5C2E"></path><path d="M147.548 56.4367H150.407V57.6379C150.755 57.2867 151.793 56.2815 153.862 56.2815H153.953C156.386 56.2815 157.342 57.6633 157.342 59.0197V63.4554H154.432V59.9842C154.432 58.9027 153.849 58.2359 152.57 58.2359C151.29 58.2359 150.435 58.9917 150.435 60.1394V63.4528H147.55V56.4342L147.548 56.4367Z" fill="#EB5C2E"></path><path d="M162.877 63.6514C158.814 63.6514 158.4 62.0609 158.4 61.16V61.0811H161.375C161.375 61.3407 161.479 62.0329 163.159 62.0329H163.185C164.79 62.0329 164.984 61.7071 164.984 61.3687V61.3432C164.984 60.9768 164.815 60.7681 163.457 60.7299L162.216 60.7045C159.187 60.6383 158.463 59.544 158.463 58.5134V58.4345C158.463 57.3504 159.033 56.2434 162.862 56.2434H163.379C166.897 56.2434 167.74 57.353 167.74 58.4472V58.5388H164.802C164.765 58.2767 164.633 57.8212 163.081 57.8212H163.069C161.683 57.8212 161.413 57.9917 161.413 58.3429V58.3683C161.413 58.6814 161.67 58.89 162.874 58.9282L164.116 58.9536C167.324 59.0198 167.997 59.7502 167.997 61.1575V61.2364C167.997 62.5266 167.248 63.6488 163.404 63.6488H162.874L162.877 63.6514Z" fill="#EB5C2E"></path></svg>