<svg xmlns="http://www.w3.org/2000/svg" version="1.0" viewBox="0 0 800 800"><path fill="#DF9F00" d="M466.9 238.8c-2.5 1.5-8.9 5.2-14.2 8.2l-9.6 5.4 10.2 6c5.6 3.2 14.7 8.6 20.2 11.8 11.4 6.7 8.8 7 24.5-2.2 5.2-3 10.7-6.1 12.2-6.9l2.8-1.4-3.4-2.3c-2.9-2-19.6-11.8-32.3-19-2.3-1.3-4.5-2.4-5-2.4-.4.1-2.9 1.3-5.4 2.8m-62.8 36.3c-3.4 2.1-6.5 3.9-6.7 3.9s-3.4 1.8-7 4-7.1 4-7.8 4c-.6 0 2.3 2 6.4 4.4 4.1 2.3 13.1 7.6 20 11.5 6.9 4 12.9 7.6 13.3 8.1.5.4 3.9-1.1 7.5-3.3 9.6-5.8 18.4-10.7 20.5-11.4 2.7-.8 2-2.8-1.5-4.6-3.7-1.9-7.2-3.9-23.9-13.8-6.4-3.8-12.2-6.9-13-6.8-.8 0-4.3 1.8-7.8 4m49.3 29.4c0 6 .1 8.4.3 5.2s.2-8.1 0-11-.3-.3-.3 5.8m-103 1.5c-.9.9-9.6 5.9-22.1 12.7-3.5 1.9-6.3 3.6-6.3 3.8 0 .3 8.1 5.1 19 11.2 1.9 1.1 7.5 4.4 12.3 7.2 4.9 2.9 9.5 5 10.3 4.7s5.7-3 11-6.1c5.2-3 9.7-5.5 9.9-5.5s2-1.1 3.9-2.4c2.6-1.7 3.2-2.6 2.3-3.5-.6-.6-1.4-1.1-1.9-1.1-.4 0-4.7-2.4-9.5-5.3-4.9-3-10.9-6.5-13.3-7.9-2.5-1.4-6.8-3.9-9.6-5.6-2.9-1.7-5.6-2.6-6-2.2"/><path fill="#BF2020" d="M431.5 259.1c-5.5 3.4-12 7.1-14.4 8.3l-4.5 2.3 2.5 1.6c1.3.8 10.6 6.3 20.7 12.2l18.3 10.6 4.2-2.4c12-6.9 24.3-14 24.7-14.5.6-.5 2 .4-21.4-13.2-10.4-6.1-19.1-11-19.5-11-.3.1-5.1 2.8-10.6 6.1m-58 33.5c-4.4 2.6-9.3 5.4-11 6.4-1.6 1-4.5 2.6-6.2 3.6-1.8 1.1-3.3 2.2-3.3 2.5s1.9 1.6 4.3 2.9c2.3 1.3 8.5 4.9 13.7 8s12.4 7.3 16.1 9.3l6.5 3.7 13.9-8c7.6-4.4 14-8.2 14.3-8.5.6-.6-2-2.7-5.8-4.7-1.3-.7-9.6-5.5-18.3-10.6-8.7-5-16-9.2-16-9.2-.1 0-3.8 2.1-8.2 4.6M314 326.9c-3.6 2.1-8.5 5-11 6.5-2.5 1.4-6 3.4-7.7 4.3-4 2-4.1 2.7-.5 4.6 1.5.8 6.8 3.8 11.7 6.7 9.8 5.7 12.2 7.1 20.6 11.9l5.7 3.2 14.5-8.3c8-4.6 14.3-8.6 14.1-9-.2-.3-2.3-1.7-4.7-3.1-2.3-1.3-11.3-6.5-20-11.6-8.7-5-15.9-9.1-16-9s-3.1 1.8-6.7 3.8"/><path fill="#BF6020" d="M362.4 359c0 6.9.1 9.7.3 6.2.2-3.4.2-9 0-12.5-.2-3.4-.3-.6-.3 6.3"/><path fill="#BF8000" d="M423.3 327c0 2.5.2 3.5.4 2.2.2-1.2.2-3.2 0-4.5-.2-1.2-.4-.2-.4 2.3"/><path fill="#DFBF00" d="M504.8 263.8c-1.6 1-2.8 2.1-2.8 2.5 0 .7 3.7-1.5 6.9-4 1.4-1-1.8.1-4.1 1.5m-19.7 11.6c-.8.9-1.1 4.8-.8 11.2l.3 9.9.2-10.1c.2-9.4.4-10.2 2.5-11.2 1.6-.8 1.7-1.1.6-1.1-.9-.1-2.2.5-2.8 1.3M435 304.5c-1.9 1.4-3.1 2.5-2.8 2.5.9 0 7.8-4.1 7.8-4.6 0-.9-1.7-.2-5 2.1m-7.7 4.6c-3.5 2.2-4.6 3.7-1.5 2 2.2-1.3 5.8-4 5.2-4.1-.3 0-2 1-3.7 2.1m-37.5 21.5c-1.6.8-2.8 1.7-2.8 1.9 0 1 1.6.4 4-1.5 3-2.3 2.5-2.5-1.2-.4m-21.6 12.5c-2.9 1.7-5.1 3.3-4.9 3.6.4.4 10.7-5.7 10.7-6.3s-.3-.5-5.8 2.7"/><path fill="#FFBF00" d="M507.6 263.5c-3.2 1.9-6 3.5-6.3 3.5-.2 0-2.3 1.3-4.6 2.8s-5.9 3.7-8 4.7l-3.8 2 .3 12.4c.3 12.2.3 12.4 3 14.4 4.1 3.1 9.8 1.1 16.4-5.7 7.5-7.7 9.5-13.9 9.2-27.3l-.3-10.4zM445 299.8c-4.1 2.4-9.4 5.5-11.8 6.8-9.8 5.5-9.2 4.4-9.2 15.9 0 5.7.4 11.5 1 12.9 3.3 8.9 16.8 3.5 24.6-9.9 2.6-4.5 2.9-6.1 3.2-15.5.6-16.1 1-15.5-7.8-10.2m-57 32.8c-2.5 1.4-9.1 5.3-14.7 8.7l-10.3 6.1v10.3c0 12 1.3 15.8 5.8 16.8 6.7 1.4 16.3-5.9 21.2-16.3 1.8-3.7 2.4-7.1 2.8-16.5.3-6.4.3-11.7.1-11.7-.2.1-2.4 1.2-4.9 2.6"/><path fill="#DF9F20" d="m382.9 368.7-3.4 3.8 3.8-3.4c2-1.9 3.7-3.6 3.7-3.8 0-.8-.8 0-4.1 3.4"/><path fill="#9F2020" d="M479.5 279.4c-2.2 1.3-8.8 5.1-14.7 8.6l-10.8 6.3v11.2c0 9.8.3 11.6 2.1 13.9 4.6 5.9 15.1 1.9 22.2-8.6 4.4-6.5 5.9-13.6 5.5-25l-.3-8.8zm-71.7 41.4-14.8 8.5v10.6c0 11.6 1 14.9 5.1 16.8 5.7 2.7 16-3.9 21.4-13.8 2.6-4.8 2.9-6.6 3.3-16.4.2-6.1.3-11.8.1-12.6-.3-1.3-3.7.3-15.1 6.9m-61.1 35.3c-7.6 4.3-14.1 7.7-14.5 7.5s-.5 5.2-.2 12.1c.5 11.6.7 12.6 2.9 14.4 3.6 2.9 9 2.5 14.2-1.3 5-3.6 6.3-5.1 10.2-12.1 2.5-4.6 2.7-5.8 2.7-16.8 0-6.6-.3-11.9-.7-11.9-.5.1-7 3.7-14.6 8.1"/><path fill="#DF8020" d="M505.5 297.7c-4 4.7-10.2 8.2-14.2 8.3-1.2 0-3.3-1.4-4.7-3l-2.5-3.1-.7 2.6c-.3 1.4-2.4 5.2-4.5 8.5-8.3 12.9-21.5 16-25.2 6-.4-1-.6-.8-.6.7-.2 6-7.5 16.4-14.3 20.2-6.9 4-12.7 3-14.8-2.4-.8-1.8-.9-1.8-.9-.1-.1 2.9-4.9 11.8-8.4 15.4-6.9 7.2-15.9 9.4-19.5 4.7l-2-2.6-2.5 5.4c-3.2 7-8.4 12.7-14.1 15.6-4 2-5.1 2.1-8.1 1.1-1.9-.6-3.9-1.9-4.4-2.8s-1.1-1.5-1.3-1.2-1.6 3-3.1 6.1-4.2 7.1-6 8.9c-7.5 7.7-13.4 8.9-21.4 4.1-5.4-3.2-24.2-14.2-31.7-18.5l-4.9-2.9.7 10.4c.6 9.7.8 10.5 3.4 12.6 1.5 1.3 3.1 2.3 3.5 2.3.5 0 2.1.8 3.5 1.8 1.5 1.1 5.2 3.2 8.2 4.9 3 1.6 9.4 5.3 14.1 8.2l8.6 5.1 8.9-5.1c4.9-2.9 10.5-6.1 12.4-7.1 1.9-1.1 4-2.4 4.5-2.8.6-.4 3.5-2.1 6.5-3.7 4.6-2.5 15.8-9 33.5-19.3 16.4-9.6 20.7-12 21.5-12 .6 0 1 16.1 1 42.3v42.4l-5.2 2.8c-2.9 1.5-8.7 4.9-12.8 7.3-4.1 2.5-10.4 6.2-14 8.2s-8.2 4.6-10.3 5.8-6.8 4-10.5 6.1-10.7 6.1-15.7 9c-4.9 2.8-10.1 5.8-11.5 6.7-8.2 5-7.9 4.9-15.5.3-10.6-6.4-32.4-18.9-33-18.9-.3 0-.4 6.8-.3 15.1.2 12.3.6 15.3 1.8 16 .8.5 6.8 4 13.4 7.9 6.5 3.8 12 7 12.1 7 .2 0 3.3 1.8 6.9 4l6.5 4 12.3-7.1c12.8-7.4 14.3-8.3 26.1-15 9.6-5.5 12.2-7 18.5-10.8 2.9-1.7 5.5-3.1 5.8-3.1s1.8-.8 3.2-1.9c2.7-1.9 5.1-3.3 17.2-10.1 7.3-4.1 11.7-6.6 17.3-10l3.7-2.2v-52.2c-.1-56.8-.4-53.9 5.9-66.6 5.7-11.5 14.1-20.4 23.6-25.1 10.5-5.1 19-3.3 23.9 5.1 2 3.4 2.1 5.1 2.4 54.7.1 28.2.5 51.3.8 51.3s3-1.5 6-3.2l5.4-3.3v-68.7c0-37.9-.1-68.8-.2-68.7-.2 0-2.1 2.1-4.3 4.6"/><path fill="#9F8060" fill-opacity=".3" d="M510.3 309c0 3.6.2 5 .4 3.2.2-1.7.2-4.7 0-6.5-.2-1.7-.4-.3-.4 3.3"/><path fill="#DF8040" d="M296.3 385.5c0 2.7.2 3.8.4 2.2.2-1.5.2-3.7 0-5-.2-1.2-.4 0-.4 2.8"/><path fill="#DF8000" d="M423.3 317.5c0 3.3.2 4.5.4 2.7s.2-4.5 0-6-.4 0-.4 3.3"/><path fill="#806040" fill-opacity=".3" d="M510.3 335c0 2.5.2 3.5.4 2.2.2-1.2.2-3.2 0-4.5-.2-1.2-.4-.2-.4 2.3"/><path fill="#608040" d="M425.4 394.5c0 16.5.2 23.4.3 15.3.2-8.1.2-21.6 0-30-.1-8.4-.3-1.8-.3 14.7"/><path fill="#608060" d="M497.4 357c0 8 .2 11.2.3 7.2.2-3.9.2-10.5 0-14.5-.1-3.9-.3-.7-.3 7.3m-72 77.5c0 6 .1 8.4.3 5.2s.2-8.1 0-11-.3-.3-.3 5.8"/><path fill="#BF8040" d="M510.3 425c0 3 .2 4.3.4 2.7.2-1.5.2-3.9 0-5.5-.2-1.5-.4-.2-.4 2.8"/><path fill="#408060" d="M497.4 382.5c0 6.6.1 9.2.3 5.7.2-3.4.2-8.8 0-12-.2-3.1-.3-.3-.3 6.3"/><path fill="#006060" d="M472.5 326.4c-10.9 5-22.1 18.6-27.3 32.8l-2.7 7.3-.3 51.8-.3 51.7 3.3-1.9c5.6-3.1 17.5-10 21-12 1.8-1 6.7-3.9 10.8-6.3 4.1-2.5 10.2-5.9 13.5-7.8 3.3-1.8 6.3-3.5 6.7-3.9.4-.3.3-23.8-.1-52.1-.7-46.7-.9-51.8-2.5-54.8-3.9-7.3-12.8-9.2-22.1-4.8m16.5 6.5c4.6 4.8 5 7 5 27.7 0 11.7-.3 16.4-1.2 17.2-1.8 1.4-46.7 27.2-47.4 27.2-.3 0-.4-8.7-.1-19.3.5-20.3 1.1-23.6 6.2-33.7 3.2-6.4 3.6-6.9 10.3-13.7 6.2-6.4 11.9-9.2 18.6-9.3 4.4 0 5.3.4 8.6 3.9m4.8 76.3-.3 27.2-23.6 13.6-23.6 13.6-.6-20c-.4-11.1-.7-23.3-.7-27.2v-7.2l11.2-6.3c6.1-3.5 12.3-7.1 13.7-7.9 1.4-.9 6-3.5 10.1-5.7 4.1-2.3 8.4-4.9 9.5-5.7 4.5-3.4 4.5-3.2 4.3 25.6M417.6 369c-3.7 2.2-6.9 4-7.1 4-.1 0-4.2 2.3-9.1 5.2-33.4 19.3-46.1 26.7-54.6 31.5-8.9 5.1-9.8 5.8-9.8 8.5 0 1.6.3 2.7.8 2.5.4-.3 11.5-6.7 24.7-14.2 13.2-7.6 24.5-14.1 25-14.5.6-.4 3-1.9 5.5-3.2 2.5-1.4 9.3-5.3 15.1-8.7 5.9-3.3 11.2-6.1 11.8-6.1.8 0 1.1 10.1 1.1 35.4v35.4l-10.7 6.2c-6 3.5-12.8 7.4-15.3 8.8-2.5 1.3-4.9 2.8-5.5 3.2-.5.4-3 1.9-5.5 3.2-2.5 1.4-7.7 4.4-11.7 6.7-3.9 2.2-8.7 4.9-10.5 5.9-1.8 1.1-5.5 3.3-8.3 4.9-9 5.5-15 8.7-15.6 8.6-.3-.1-.3 1.1-.1 2.8.2 1.6.7 2.7 1.1 2.5.6-.3 45.5-26.1 51.6-29.6 19.2-11 33.1-19.2 33.8-19.9.4-.4.6-19.3.5-41.9l-.3-41.2z"/><path fill="#208060" d="M497.4 402.5c0 4.9.1 7.1.3 4.8s.2-6.4 0-9-.3-.8-.3 4.2"/><path fill="teal" d="M445.3 427.5c0 4.4.2 6.1.4 3.7.2-2.3.2-5.9 0-8-.2-2-.4-.1-.4 4.3"/><path fill="#409F9F" d="M445.3 378c0 2.5.2 3.5.4 2.2.2-1.2.2-3.2 0-4.5-.2-1.2-.4-.2-.4 2.3"/><path fill="#20809F" d="M445.3 390.5c0 4.4.2 6.1.4 3.7.2-2.3.2-5.9 0-8-.2-2-.4-.1-.4 4.3M420.4 425c0 10.7.2 15.1.3 9.7.2-5.3.2-14.1 0-19.5-.1-5.3-.3-.9-.3 9.8"/><path fill="#80BFDF" d="M472 331.8c-8.6 4.2-16.2 12.5-21.4 23.6-3.8 8.3-4.6 13.6-4.6 32.2v16.3l4.8-2.7c2.7-1.5 13.5-7.7 24.1-13.7l19.2-11-.4-17.5c-.4-19.1-1.2-22.9-6.2-26.8-3.4-2.7-10.4-2.9-15.5-.4m19 40.5c0 2.8-1.7 4.7-4.2 4.7-2 0-2.3-2.1-.8-5.1 1.5-2.8 5-2.5 5 .4m-72.5 2.6c-.9.8-20.3 12.1-32.5 18.9-6.6 3.7-34.9 20.1-39 22.6-1.9 1.2-4.7 2.8-6.2 3.5l-2.8 1.4v34.9c0 19.1.3 34.8.6 34.8.6 0 4.3-2 17.8-9.9 4.9-2.8 9.1-5.1 9.3-5.1s2.3-1.3 4.6-2.9c2.3-1.5 6.5-4 9.2-5.5 2.8-1.4 7.5-4.1 10.5-5.8 3.1-1.8 11.1-6.5 17.8-10.3l12.2-7v-35.3c0-19.3-.1-35.2-.3-35.2s-.7.4-1.2.9M367.8 421c4.5 1.7 6.2 2.7 6 3.9-.2.9-1.1 1.7-2.1 1.9-1.8.4-12.3-3.3-14.1-4.9-1.2-1 1.3-4.1 2.8-3.6.6.2 3.9 1.5 7.4 2.7m-12.8 5.4c6.4 2.3 8.8 5 5.6 6.2-1.3.5-15.6-4.2-15.6-5.1 0-1.4 1.4-3.5 2.4-3.5.6 0 4 1.1 7.6 2.4m11.8 6.5c-.4 2-4.8 2.8-4.8.9 0-2 2-3.7 3.7-3.1.8.3 1.3 1.3 1.1 2.2m8 1.2c2.5 1 3 3.7.7 4.5-1.7.7-8.5-1.4-8.5-2.6 0-.5.3-1.6.6-2.4.6-1.7 1.5-1.6 7.2.5m-17.7 5.3c6.2 2.3 8.7 5 5.6 6.1-1.4.6-12.4-3-14.1-4.6-1-.9-.1-3.9 1.2-3.9.5 0 3.8 1.1 7.3 2.4m135.4-56.5c-.6.5-3.5 2.2-6.5 3.9-3 1.6-9 5.1-13.3 7.6s-7.9 4.6-8.1 4.6-4.3 2.4-9.2 5.3l-8.9 5.3-.3 26.3c-.2 24.1-.1 26.3 1.4 25.7.9-.3 10.7-5.9 21.8-12.3 11-6.4 21.1-12.1 22.3-12.7 2.3-1.1 2.3-1.1 2.3-27.9 0-14.7-.1-26.7-.3-26.7s-.7.4-1.2.9"/><path fill="#208080" d="M420.4 390c0 9.1.2 12.8.3 8.2.2-4.5.2-11.9 0-16.5-.1-4.5-.3-.8-.3 8.3m24.6 10.9c0 1.7.4 3.2.8 3.5.4.2.6-1.1.4-3-.5-4.2-1.2-4.5-1.2-.5m.3 14.1c0 3 .2 4.3.4 2.7.2-1.5.2-3.9 0-5.5-.2-1.5-.4-.2-.4 2.8"/><path fill="#806040" fill-opacity=".4" d="M510.4 349c0 5.2.1 7.4.3 4.7.2-2.6.2-6.8 0-9.5-.2-2.6-.3-.4-.3 4.8"/><path fill="#802000" d="M291 351c0 6.9.5 11 1.5 12.9 1.1 2.3 9 7.9 14 10 .5.2 4.8 2.8 9.5 5.6 15.6 9.4 18.2 10.8 17 8.6-.5-1.1-1-6.9-1-13v-11l-8.1-4.5c-4.5-2.5-8.3-4.6-8.5-4.6s-3.2-1.7-6.6-3.8c-3.5-2.1-8.9-5.3-12-7.1l-5.8-3.2z"/><path fill="#200000" fill-opacity=".3" d="M290.4 352.5c0 5.5.1 7.6.3 4.7s.2-7.4 0-10-.3-.2-.3 5.3"/><path fill="#806040" fill-opacity=".5" d="M510.3 363c0 3 .2 4.3.4 2.7.2-1.5.2-3.9 0-5.5-.2-1.5-.4-.2-.4 2.8"/><path d="M599.3 364.5c0 3.3.2 4.5.4 2.7s.2-4.5 0-6-.4 0-.4 3.3"/><path fill="#DFDFDF" d="M358.7 419.7c-1.5 1.4-.4 2.2 6.4 4.8 5.8 2.3 7.3 2.5 8 1.4 1-1.7.6-2.1-6-4.7-5.7-2.3-7.3-2.6-8.4-1.5m-12.7 6.6c0 1.8 13.2 6.7 14.8 5.5 2.1-1.8 1.4-2.3-5.2-4.6-7.3-2.5-9.6-2.7-9.6-.9m16.7 6.1c-.3.8 0 1.7.8 2 1.5.5 3.9-1.7 2.8-2.7-1.1-1.2-3.1-.8-3.6.7m4.8 1.7c-.4.6-.5 1.2-.3 1.4 1.1 1.1 7.6 3.3 8.2 2.8 1.3-1.3.5-3-1.9-4.1-3.2-1.5-5.2-1.5-6-.1m-18.9 3.7c-1.4 1.4-.4 3.2 2.2 3.8 1.5.4 4.6 1.5 6.9 2.5 3.6 1.5 4.3 1.6 5.4.3.6-.8 1-1.7.7-1.9-1-1.1-14.7-5.3-15.2-4.7"/><path fill="#FFF" d="M486.6 372.6c-.9 2.4-.7 3.4.8 3.4 1.3 0 2.6-2 2.6-4.1 0-1.5-2.7-1-3.4.7"/><path fill="#806020" fill-opacity=".6" d="M510.4 381.5c0 5.5.1 7.6.3 4.7s.2-7.4 0-10-.3-.2-.3 5.3"/><path fill="#804020" fill-opacity=".6" d="M510.4 405c0 8 .2 11.2.3 7.2.2-3.9.2-10.5 0-14.5-.1-3.9-.3-.7-.3 7.3"/><path fill="#006040" d="M297 394.4c0 2.1 1.6 3.4 9.8 8.2 5.3 3.1 14 8.2 19.2 11.3s9.8 5.7 10.2 5.9c.5.2.8-1 .8-2.6 0-2.3-.7-3.4-2.7-4.4-1.6-.8-10.3-5.8-19.5-11.1s-17-9.7-17.3-9.7-.5 1.1-.5 2.4m.2 77.2c.2 2.3 2.1 3.8 11.7 9.6 6.2 3.7 11.5 6.8 11.7 6.8.1 0 4 2.3 8.6 5 6.5 3.9 8.4 4.7 8.6 3.4.2-.8.1-2.1-.1-2.8-.4-1-19.5-13-23.2-14.5-.5-.2-3.7-2.1-7-4.1-10.8-6.6-10.7-6.6-10.3-3.4"/><path fill="#609F9F" fill-opacity=".9" d="M296.3 402c0 2.5.2 3.5.4 2.2.2-1.2.2-3.2 0-4.5-.2-1.2-.4-.2-.4 2.3"/><path fill="#60809F" d="M297 432.8v34.8l7.3 4.4c12.7 7.6 32.6 19 33.3 19 .4 0 .4-15.6.1-34.8-.5-26.7-.9-34.9-1.9-35.5-12.6-7.5-23.2-13.7-23.4-13.7s-2.7-1.5-5.6-3.4c-2.9-1.8-6.3-3.8-7.5-4.5l-2.3-1.2z"/><path fill="#609F9F" fill-opacity=".8" d="M296.4 415c0 5.2.1 7.4.3 4.7.2-2.6.2-6.8 0-9.5-.2-2.6-.3-.4-.3 4.8"/><path fill="#80809F" d="M511 425.5v5.6l4-2.2c2.2-1.3 4-2.7 4-3.3s-1.8-2.1-4-3.4l-4-2.3zm-219.8 84.2-4.4 2.6 5.9 3.2c3.2 1.8 8.5 4.9 11.8 6.9 16.5 10 24.5 14.4 25 13.6.2-.4 2-1.5 4-2.4 1.9-.9 3.5-2.1 3.5-2.5 0-.5-6.9-4.8-15.2-9.7-8.4-4.8-17.3-10.1-19.7-11.6-2.5-1.5-5-2.8-5.5-2.8-.6.1-3.1 1.3-5.4 2.7"/><path fill="#609F9F" d="M337.4 432c0 6.3.1 8.9.3 5.7.2-3.1.2-8.3 0-11.5-.2-3.1-.3-.5-.3 5.8"/><path fill="#406060" fill-opacity=".6" d="M520.3 432c0 4.1.2 5.8.4 3.7.2-2 .2-5.4 0-7.5-.2-2-.4-.3-.4 3.8"/><path fill="gray" d="M514 429.3c-3 1.7-10.4 5.9-16.5 9.5-12.1 7.2-13.8 8.1-24 14-3.8 2.2-9 5.1-11.5 6.6-2.5 1.4-9 5.1-14.5 8.2s-15.6 8.9-22.5 12.9c-21.1 12.3-77.3 44.7-81 46.8-1.9 1-4.1 2.4-4.7 2.9-.7.6-1.3.7-1.3.2s-.5-.1-1.1.8c-.5 1-1.5 1.8-2 1.8-.6 0-2.4.9-4 2.1-2.6 1.9-2.9 2.6-2.9 8 0 3.2.4 5.9.8 5.9.5 0 5.7-2.9 11.7-6.5 5.9-3.6 10.9-6.5 11.1-6.5s2.7-1.4 5.6-3.1c2.9-1.8 7.8-4.6 10.8-6.2 3-1.7 8.4-4.8 11.9-6.9 3.4-2.1 6.7-3.8 7.2-3.8s.9-.4.9-.9.8-1.1 1.8-1.4c2.2-.7 13.6-7.2 17.2-9.7 1.6-1.1 3.1-2 3.5-2s1.9-.8 3.3-1.8c1.5-1.1 5.2-3.3 8.2-4.9 3-1.7 11.1-6.3 18-10.3s15-8.6 18-10.3c3-1.6 6.7-3.8 8.2-4.9 1.4-1 2.8-1.8 3.1-1.8s5.1-2.7 10.6-6c5.6-3.3 10.6-6 11.1-6 .6 0 1-.5 1-1 0-.6.4-1 .9-1 .9 0 25-13.6 26.4-14.9.4-.5.7-3.5.5-6.8l-.3-6z"/><path fill="#809F9F" fill-opacity=".7" d="M296.3 432.5c0 2.7.2 3.8.4 2.2.2-1.5.2-3.7 0-5-.2-1.2-.4 0-.4 2.8"/><path fill="#809FBF" fill-opacity=".7" d="M296.3 447c0 4.1.2 5.8.4 3.7.2-2 .2-5.4 0-7.5-.2-2-.4-.3-.4 3.8"/><path fill="#404040" fill-opacity=".4" d="M286.3 516c0 2.5.2 3.5.4 2.2.2-1.2.2-3.2 0-4.5-.2-1.2-.4-.2-.4 2.3"/><path fill="#809FBF" fill-opacity=".6" d="M296.3 461c0 4.1.2 5.8.4 3.7.2-2 .2-5.4 0-7.5-.2-2-.4-.3-.4 3.8"/><path fill="#DF9F80" fill-opacity=".6" d="M296.4 488c0 7.4.1 10.5.3 6.7.2-3.7.2-9.7 0-13.5-.2-3.7-.3-.6-.3 6.8"/><path fill="#606060" d="M287.2 519.5c.2 4.8.7 7 1.8 7.6.8.5 4.6 2.6 8.4 4.9 3.7 2.2 7 4 7.3 4s1.7.8 3.1 1.9c2.6 1.8 7.4 4.5 15.7 9l4 2.1.3-5.1c.4-6.7.2-7.2-5-10.1-19-10.9-30.7-17.7-33.1-19.3l-2.8-1.8z"/></svg>